<?xml version="1.0" encoding="UTF-8"?>
<svg version="1.1" xmlns="http://www.w3.org/2000/svg" width="433" height="234">
<path d="M0 0 C0.99 0.66 1.98 1.32 3 2 C2.39800885 5.26569425 1.62589203 8.34504619 0.546875 11.484375 C0.25949463 12.3297583 -0.02788574 13.1751416 -0.32397461 14.04614258 C-0.78235718 15.384552 -0.78235718 15.384552 -1.25 16.75 C-4.41494342 26.10070864 -7.29978602 35.50569923 -10 45 C-9.34 45 -8.68 45 -8 45 C-7.814375 44.0409375 -7.814375 44.0409375 -7.625 43.0625 C-7.41875 42.381875 -7.2125 41.70125 -7 41 C-6.34 40.67 -5.68 40.34 -5 40 C-5 38.68 -5 37.36 -5 36 C-1.95613276 35.91773332 0.07175348 36.02391783 3 37 C3.598125 36.030625 4.19625 35.06125 4.8125 34.0625 C7 31 7 31 10 30 C10.73323796 27.98491642 10.73323796 27.98491642 11 26 C12.65 26 14.3 26 16 26 C15.01 25.34 14.02 24.68 13 24 C12.8125 21.375 12.8125 21.375 13 19 C17.99911924 19.47610659 20.97832683 21.03162219 25 24 C24.505 23.38125 24.01 22.7625 23.5 22.125 C21.39505724 17.73970259 21.74924773 13.78286739 22 9 C22.99 8.67 23.98 8.34 25 8 C25.99 8.99 26.98 9.98 28 11 C28.33 10.34 28.66 9.68 29 9 C30.32 9 31.64 9 33 9 C33.84709184 11.40638829 34.15910718 12.58486757 33.23046875 15.0078125 C32.71419922 16.05582031 32.71419922 16.05582031 32.1875 17.125 C31.05805291 20.2220359 30.81663355 21.49555515 31.95703125 24.6328125 C35.21132851 30.15275975 39.10492829 34.44972122 43.90234375 38.67578125 C45.75042847 40.38480217 47.46665919 42.00256197 49 44 C48.9375 46.9375 48.9375 46.9375 48 49 C43.72009555 48.52445506 41.87301689 46.01316405 39 43 C38.071875 42.278125 37.14375 41.55625 36.1875 40.8125 C35.465625 40.214375 34.74375 39.61625 34 39 C34 38.34 34 37.68 34 37 C33.4225 36.71125 32.845 36.4225 32.25 36.125 C30.16666667 35.08333333 28.08333333 34.04166667 26 33 C26.32742187 33.66386719 26.65484375 34.32773438 26.9921875 35.01171875 C28.22423374 38.66487912 28.21959396 42.01055042 28.125 45.8125 C28.11597656 46.50537109 28.10695313 47.19824219 28.09765625 47.91210938 C28.07426157 49.60822395 28.03839641 51.30415871 28 53 C28.62390625 52.81179687 29.2478125 52.62359375 29.890625 52.4296875 C32 52 32 52 33.75 53.125 C35.35903101 55.53854651 35.23053497 57.15673536 35 60 C30.56923077 62.09230769 30.56923077 62.09230769 27.6875 61.625 C27.130625 61.41875 26.57375 61.2125 26 61 C25.67 59.35 25.34 57.7 25 56 C24.01 57.98 23.02 59.96 22 62 C20.35 61.67 18.7 61.34 17 61 C16.34 62.65 15.68 64.3 15 66 C14.01 65.67 13.02 65.34 12 65 C12.36336607 58.70165475 14.19160246 53.93922804 16.72265625 48.1875 C18.69791803 43.25840638 19.87062836 38.17858215 21 33 C19.68 33 18.36 33 17 33 C16.67 34.32 16.34 35.64 16 37 C13.03 37.495 13.03 37.495 10 38 C9.814375 39.1446875 9.814375 39.1446875 9.625 40.3125 C9 43 9 43 7 46 C6.01 46 5.02 46 4 46 C3.90203125 46.67417969 3.8040625 47.34835938 3.703125 48.04296875 C2.8353207 51.69256794 1.32187918 54.92732817 -0.25 58.3125 C-3.36912492 65.20390678 -5.74931522 72.12000341 -7.859375 79.37890625 C-9.03680693 83.1168494 -10.24950042 86.49458038 -12 90 C-12.99 90.33 -13.98 90.66 -15 91 C-17.50740841 88.89169466 -18.87271731 87.71907875 -19.45410156 84.43457031 C-19.4331543 83.49194336 -19.41220703 82.54931641 -19.390625 81.578125 C-19.37773437 80.55332031 -19.36484375 79.52851563 -19.3515625 78.47265625 C-19.31804687 77.40917969 -19.28453125 76.34570312 -19.25 75.25 C-19.23195312 74.17105469 -19.21390625 73.09210938 -19.1953125 71.98046875 C-19.14821415 69.31941212 -19.082456 66.66015746 -19 64 C-20.3638689 66.27231899 -21.72621141 68.54551008 -23.0859375 70.8203125 C-24.45459686 73.09396295 -25.8340107 75.35831812 -27.2265625 77.6171875 C-32.21473831 85.74839632 -36.8191364 93.8279034 -40.01171875 102.86328125 C-40.33785156 103.77464844 -40.66398438 104.68601562 -41 105.625 C-41.268125 106.44226563 -41.53625 107.25953125 -41.8125 108.1015625 C-43 110 -43 110 -45.625 110.7734375 C-46.40875 110.84820312 -47.1925 110.92296875 -48 111 C-48.80667801 103.87098308 -45.95679716 98.556952 -43 92.1875 C-41.98544535 89.95453236 -40.97112409 87.72145866 -39.95703125 85.48828125 C-39.45381348 84.39080566 -38.9505957 83.29333008 -38.43212891 82.16259766 C-37.14729934 79.32528395 -35.90958691 76.47515147 -34.69921875 73.60546875 C-34.18391602 72.39564331 -34.18391602 72.39564331 -33.65820312 71.16137695 C-33.03499802 69.69349067 -32.41970272 68.22220669 -31.81445312 66.74682617 C-29.65070482 61.73369487 -26.73814926 57.96421277 -23 54 C-23.495 53.505 -23.495 53.505 -24 53 C-25.35772449 39.19646769 -16.4303946 26.69892773 -10 15 C-9.61811523 14.30358398 -9.23623047 13.60716797 -8.84277344 12.88964844 C-2.40055793 1.20027896 -2.40055793 1.20027896 0 0 Z M-13 31 C-13.67119549 32.4562545 -14.33681807 33.91507867 -15 35.375 C-15.37125 36.18710938 -15.7425 36.99921875 -16.125 37.8359375 C-17.12495013 39.91998433 -17.12495013 39.91998433 -17 42 C-16.01 41.67 -15.02 41.34 -14 41 C-13.34 37.7 -12.68 34.4 -12 31 C-12.33 31 -12.66 31 -13 31 Z M-18 42 C-17 44 -17 44 -17 44 Z M-6 54 C-6.99 54.495 -6.99 54.495 -8 55 C-8.144375 55.66 -8.28875 56.32 -8.4375 57 C-8.623125 57.66 -8.80875 58.32 -9 59 C-9.99 59.33 -10.98 59.66 -12 60 C-14.51858302 65.91260933 -14.23666802 72.70200108 -14 79 C-12.16928996 76.25393494 -11.47272825 74.54417469 -10.625 71.4375 C-9.30434816 66.80160359 -7.59981013 62.44594203 -5.671875 58.03125 C-4.72349797 55.96511085 -4.72349797 55.96511085 -6 54 Z " fill="#E6D173" transform="translate(208,88)"/>
<path d="M0 0 C0.99 0.66 1.98 1.32 3 2 C2.3664299 5.47239922 1.49921277 8.73869671 0.37109375 12.08203125 C0.05849609 13.01337891 -0.25410156 13.94472656 -0.57617188 14.90429688 C-0.90166016 15.86400391 -1.22714844 16.82371094 -1.5625 17.8125 C-1.89185547 18.79154297 -2.22121094 19.77058594 -2.56054688 20.77929688 C-3.37098715 23.18712669 -4.18422054 25.59397496 -5 28 C-5.66 26.68 -6.32 25.36 -7 24 C-7.99 24.33 -8.98 24.66 -10 25 C-9.938125 26.134375 -9.87625 27.26875 -9.8125 28.4375 C-9.78619778 33.33847991 -11.23987606 37.473967 -13 42 C-13.66 41.67 -14.32 41.34 -15 41 C-14.34 38.36 -13.68 35.72 -13 33 C-13.67595315 34.41225926 -14.34040059 35.83002905 -15 37.25 C-15.37125 38.03890625 -15.7425 38.8278125 -16.125 39.640625 C-17.23181252 42.2056657 -17.23181252 42.2056657 -17 46 C-17.99 46 -18.98 46 -20 46 C-19.505 43.03 -19.505 43.03 -19 40 C-19.66 40 -20.32 40 -21 40 C-21.12375 40.804375 -21.2475 41.60875 -21.375 42.4375 C-21.684375 43.7059375 -21.684375 43.7059375 -22 45 C-22.99 45.495 -22.99 45.495 -24 46 C-20.97754028 33.50716648 -14.59311701 22.68891628 -7.79296875 11.9296875 C-6.25191902 9.41163239 -4.89812382 6.90983489 -3.625 4.25 C-2 1 -2 1 0 0 Z " fill="#EDDD9D" transform="translate(208,88)"/>
<path d="M0 0 C0.54249536 8.00180661 -1.39161312 14.46595398 -4 22 C-3.34 22 -2.68 22 -2 22 C-1.67 20.68 -1.34 19.36 -1 18 C0.65 17.67 2.3 17.34 4 17 C4.22304441 18.74818591 4.4278645 20.49870323 4.625 22.25 C4.79902344 23.71179688 4.79902344 23.71179688 4.9765625 25.203125 C5.00112537 28.13429393 4.5312717 29.54528964 3 32 C1.35 32 -0.3 32 -2 32 C-2.495 34.475 -2.495 34.475 -3 37 C-3.99 37 -4.98 37 -6 37 C-6.33 37.99 -6.66 38.98 -7 40 C-7 38.68 -7 37.36 -7 36 C-6.34 36 -5.68 36 -5 36 C-4.34 34.02 -3.68 32.04 -3 30 C-2.34 30 -1.68 30 -1 30 C-1 27.69 -1 25.38 -1 23 C-2.32 23 -3.64 23 -5 23 C-5.33 22.01 -5.66 21.02 -6 20 C-6.66 20.33 -7.32 20.66 -8 21 C-8.66 20.67 -9.32 20.34 -10 20 C-10 20.99 -10 21.98 -10 23 C-9.34 23 -8.68 23 -8 23 C-7.67 23.99 -7.34 24.98 -7 26 C-6.67 25.34 -6.34 24.68 -6 24 C-5.34 24 -4.68 24 -4 24 C-4 25.65 -4 27.3 -4 29 C-5.98 29.66 -7.96 30.32 -10 31 C-10 30.34 -10 29.68 -10 29 C-11.32 29.33 -12.64 29.66 -14 30 C-13.67 29.01 -13.34 28.02 -13 27 C-13.66 27 -14.32 27 -15 27 C-15.33 26.01 -15.66 25.02 -16 24 C-16 25.98 -16 27.96 -16 30 C-16.66 30 -17.32 30 -18 30 C-18.31563182 24.73946963 -17.66590937 21.55426184 -15 17 C-14.34 17 -13.68 17 -13 17 C-13.33 18.98 -13.66 20.96 -14 23 C-13.01 23 -12.02 23 -11 23 C-11 21.68 -11 20.36 -11 19 C-9.68 19 -8.36 19 -7 19 C-6.72736328 17.19402344 -6.72736328 17.19402344 -6.44921875 15.3515625 C-6.19599246 13.77593224 -5.94204891 12.20041713 -5.6875 10.625 C-5.56955078 9.8309375 -5.45160156 9.036875 -5.33007812 8.21875 C-5.20439453 7.45820312 -5.07871094 6.69765625 -4.94921875 5.9140625 C-4.83924561 5.2123291 -4.72927246 4.5105957 -4.6159668 3.78759766 C-3.85848043 1.58929596 -2.59314272 0 0 0 Z " fill="#E7C86F" transform="translate(202,111)"/>
<path d="M0 0 C1.58598855 2.07178684 3.10284484 4.15543892 4.54296875 6.33203125 C7.99514481 11.53899514 11.39122221 15.57178656 16.3984375 19.33203125 C18.43263963 21.45057835 18.6589017 23.12990147 19 26 C17.3125 26.8125 17.3125 26.8125 15 27 C12.625 24.875 12.625 24.875 10 22 C8.90832758 21.08898259 7.80416993 20.19269865 6.6875 19.3125 C5.800625 18.549375 4.91375 17.78625 4 17 C4 16.34 4 15.68 4 15 C3.4225 14.71125 2.845 14.4225 2.25 14.125 C0.16666667 13.08333333 -1.91666667 12.04166667 -4 11 C-3.649375 11.639375 -3.29875 12.27875 -2.9375 12.9375 C-1.65009387 17.1430267 -2.3091153 20.71464763 -3 25 C-3.33 25 -3.66 25 -4 25 C-4 22.69 -4 20.38 -4 18 C-6.99152582 18.77479736 -6.99152582 18.77479736 -10 20 C-10.33 20.99 -10.66 21.98 -11 23 C-10.33333333 19 -9.66666667 15 -9 11 C-9.99 10.67 -10.98 10.34 -12 10 C-5.71428571 7.57142857 -5.71428571 7.57142857 -2 9 C-2.33 7.02 -2.66 5.04 -3 3 C-2.01 3 -1.02 3 0 3 C0 2.01 0 1.02 0 0 Z " fill="#E8DA94" transform="translate(238,110)"/>
<path d="M0 0 C0.33 1.32 0.66 2.64 1 4 C2.32 4 3.64 4 5 4 C5 6.31 5 8.62 5 11 C4.34 11 3.68 11 3 11 C2.855625 11.61875 2.71125 12.2375 2.5625 12.875 C2 15 2 15 1 17 C0.34 17 -0.32 17 -1 17 C-0.97679687 17.54785156 -0.95359375 18.09570312 -0.9296875 18.66015625 C-0.51166407 37.02332815 -0.51166407 37.02332815 -4 44 C-2.02 43.505 -2.02 43.505 0 43 C0 44.32 0 45.64 0 47 C-1.875 46.6875 -1.875 46.6875 -4 46 C-9.1887888 38.2168168 -5.35191343 24.83571992 -4 16 C-5.32 16.33 -6.64 16.66 -8 17 C-11.42857143 9.71428571 -11.42857143 9.71428571 -11 5 C-10.34 4.67 -9.68 4.34 -9 4 C-9 5.32 -9 6.64 -9 8 C-8.34 8 -7.68 8 -7 8 C-6.67 7.34 -6.34 6.68 -6 6 C-6.33 7.32 -6.66 8.64 -7 10 C-3.94736336 10.98120464 -2.05263664 10.98120464 1 10 C1.33 8.35 1.66 6.7 2 5 C1.34 5 0.68 5 0 5 C-0.33 6.32 -0.66 7.64 -1 9 C-1.33 7.35 -1.66 5.7 -2 4 C-2.66 4 -3.32 4 -4 4 C-4 3.01 -4 2.02 -4 1 C-2.68 0.67 -1.36 0.34 0 0 Z " fill="#E0C04A" transform="translate(196,130)"/>
<path d="M0 0 C1.12380103 3.29461308 0.93780227 4.88861002 -0.546875 8.01171875 C-0.8975 8.77033203 -1.248125 9.52894531 -1.609375 10.31054688 C-1.98578125 11.09494141 -2.3621875 11.87933594 -2.75 12.6875 C-5.58482164 18.69630944 -8.03809995 24.64650576 -10 31 C-9.34 31 -8.68 31 -8 31 C-7.67 29.68 -7.34 28.36 -7 27 C-6.34 27.33 -5.68 27.66 -5 28 C-6.03892661 30.82336539 -7.10404001 33.63127133 -8.1875 36.4375 C-8.47947266 37.23994141 -8.77144531 38.04238281 -9.07226562 38.86914062 C-9.92556091 41.04366732 -10.74363455 43.02964705 -12 45 C-14.73828125 46.03515625 -14.73828125 46.03515625 -17 46 C-17.84029844 38.79597799 -14.86153554 33.3667472 -11.875 26.9375 C-10.86543489 24.70853733 -9.85631761 22.47937178 -8.84765625 20.25 C-8.11313232 18.64318359 -8.11313232 18.64318359 -7.36376953 17.00390625 C-5.62392686 13.1716427 -3.95436693 9.31253558 -2.3125 5.4375 C-1.62607422 3.82681641 -1.62607422 3.82681641 -0.92578125 2.18359375 C-0.62027344 1.46300781 -0.31476563 0.74242187 0 0 Z " fill="#EDDC8F" transform="translate(177,153)"/>
<path d="M0 0 C0.33 0 0.66 0 1 0 C1 1.98 1 3.96 1 6 C1.598125 5.773125 2.19625 5.54625 2.8125 5.3125 C5 5 5 5 6.75 6.125 C8.35903101 8.53854651 8.23053497 10.15673536 8 13 C3.56923077 15.09230769 3.56923077 15.09230769 0.6875 14.625 C0.130625 14.41875 -0.42625 14.2125 -1 14 C-1.33 12.35 -1.66 10.7 -2 9 C-2.99 10.98 -3.98 12.96 -5 15 C-6.65 14.67 -8.3 14.34 -10 14 C-9.55005243 12.20620902 -9.08975857 10.41501072 -8.625 8.625 C-8.36976563 7.62726563 -8.11453125 6.62953125 -7.8515625 5.6015625 C-7 3 -7 3 -5 1 C-4.67 1.99 -4.34 2.98 -4 4 C-3.01 4.33 -2.02 4.66 -1 5 C-0.67 3.35 -0.34 1.7 0 0 Z " fill="#E5CB66" transform="translate(235,135)"/>
<path d="M0 0 C0.99 0.33 1.98 0.66 3 1 C3 2.32 3 3.64 3 5 C4.32 4.67 5.64 4.34 7 4 C7.16179775 12.08988764 7.16179775 12.08988764 6.5 15.8125 C5.55056669 21.86513734 4.52007378 28.78011067 8 34 C8.99 34.66 9.98 35.32 11 36 C9.515 36.495 9.515 36.495 8 37 C5.49259159 34.89169466 4.12728269 33.71907875 3.54589844 30.43457031 C3.57731934 29.02062988 3.57731934 29.02062988 3.609375 27.578125 C3.62871094 26.04091797 3.62871094 26.04091797 3.6484375 24.47265625 C3.68195313 23.40917969 3.71546875 22.34570312 3.75 21.25 C3.76804688 20.17105469 3.78609375 19.09210938 3.8046875 17.98046875 C3.85178585 15.31941212 3.917544 12.66015746 4 10 C3.01 10.99 2.02 11.98 1 13 C1 12.01 1 11.02 1 10 C0.3503125 10.6496875 0.3503125 10.6496875 -0.3125 11.3125 C-1.875 12.875 -3.4375 14.4375 -5 16 C-4.7525 14.824375 -4.7525 14.824375 -4.5 13.625 C-3.9376293 11.11791961 -3.9376293 11.11791961 -4 9 C-4.33 9.66 -4.66 10.32 -5 11 C-5.66 11 -6.32 11 -7 11 C-5.5140084 6.40693504 -3.14985318 3.56430755 0 0 Z " fill="#E6DB9C" transform="translate(185,142)"/>
<path d="M0 0 C0.33 0 0.66 0 1 0 C2.11239321 7.92077571 2.05298826 13.62524914 -1 21 C-1.57407114 22.68359877 -2.13686956 24.37108975 -2.6875 26.0625 C-3.125 27.375 -3.5625 28.6875 -4 30 C-4.33 28.68 -4.66 27.36 -5 26 C-6.32 26.33 -7.64 26.66 -9 27 C-8.67 23.04 -8.34 19.08 -8 15 C-7.34 15.66 -6.68 16.32 -6 17 C-5.81824219 16.35933594 -5.63648438 15.71867188 -5.44921875 15.05859375 C-3.93729955 9.85604103 -2.24999329 4.92855673 0 0 Z " fill="#E3D076" transform="translate(201,147)"/>
<path d="M0 0 C1.56393356 3.97376829 0.36145292 6.81377903 -0.9375 10.75 C-1.31777344 11.92046875 -1.69804687 13.0909375 -2.08984375 14.296875 C-2.39019531 15.18890625 -2.69054687 16.0809375 -3 17 C-2.34 17 -1.68 17 -1 17 C-0.67 15.68 -0.34 14.36 0 13 C1.65 12.67 3.3 12.34 5 12 C5.22304441 13.74818591 5.4278645 15.49870323 5.625 17.25 C5.74101562 18.22453125 5.85703125 19.1990625 5.9765625 20.203125 C6.00112537 23.13429393 5.5312717 24.54528964 4 27 C2.35 27 0.7 27 -1 27 C-1.33 28.65 -1.66 30.3 -2 32 C-2.99 32 -3.98 32 -5 32 C-5.33 32.99 -5.66 33.98 -6 35 C-6 33.68 -6 32.36 -6 31 C-5.34 31 -4.68 31 -4 31 C-3.34 29.02 -2.68 27.04 -2 25 C-1.34 25 -0.68 25 0 25 C0 22.69 0 20.38 0 18 C-1.32 18 -2.64 18 -4 18 C-3.40546697 5.33029613 -3.40546697 5.33029613 0 0 Z " fill="#E8D996" transform="translate(201,116)"/>
<path d="M0 0 C4.10212652 0.24130156 6.38962522 0.47894836 9.5625 3.1875 C10.366875 4.115625 11.17125 5.04375 12 6 C12.55300781 6.49113281 13.10601562 6.98226562 13.67578125 7.48828125 C15.375 9 15.375 9 18 12 C17.875 14.875 17.875 14.875 17 17 C12.7135704 16.52373004 10.77895881 14.12632867 8 11 C7.319375 9.96875 6.63875 8.9375 5.9375 7.875 C4.1196875 5.1776008 2.59576593 3.85411852 0 2 C0 1.34 0 0.68 0 0 Z " fill="#DFCB6E" transform="translate(239,120)"/>
<path d="M0 0 C0.99 0.66 1.98 1.32 3 2 C1.69172452 9.40034615 -0.8084182 16.43759093 -6 22 C-8.26277708 18.80549118 -8.20292953 16.03455501 -7.6171875 12.234375 C-6.48689593 8.14243338 -4.43315468 4.46402395 -2 1 C-1.34 0.67 -0.68 0.34 0 0 Z " fill="#E2CB75" transform="translate(208,88)"/>
<path d="M0 0 C4.75 0.875 4.75 0.875 7 2 C7.484375 3.92578125 7.484375 3.92578125 7.75 6.3125 C7.89695313 7.48232422 7.89695313 7.48232422 8.046875 8.67578125 C7.99392264 11.30133568 7.32990442 12.76473757 6 15 C5.34 15 4.68 15 4 15 C3.896875 16.03125 3.79375 17.0625 3.6875 18.125 C3.00872203 21.95083945 1.88841205 24.63370025 0 28 C-0.33 28 -0.66 28 -1 28 C-1 25.03 -1 22.06 -1 19 C-0.01 18.67 0.98 18.34 2 18 C2.71167986 12.92928099 3.10662326 8.11791642 3 3 C2.01 3 1.02 3 0 3 C0 2.01 0 1.02 0 0 Z " fill="#E2CA6A" transform="translate(203,125)"/>
<path d="M0 0 C3 1 3 1 4 3 C4.33 2.34 4.66 1.68 5 1 C6.32 1 7.64 1 9 1 C10.12377697 4.30435084 9.89554742 6.0506862 8.5625 9.25 C8.27503906 9.95640625 7.98757812 10.6628125 7.69140625 11.390625 C7.46324219 11.92171875 7.23507813 12.4528125 7 13 C6.67 13 6.34 13 6 13 C6.45822468 9.53058454 6.89131683 6.32604951 8 3 C5.2160817 4.39195915 5.02101003 6.15575779 4 9 C3.01 9 2.02 9 1 9 C1.33 10.32 1.66 11.64 2 13 C1.01 13 0.02 13 -1 13 C-2.26237731 10.47524538 -2.09856404 8.68799534 -2.0625 5.875 C-2.05347656 4.96492188 -2.04445312 4.05484375 -2.03515625 3.1171875 C-2.02355469 2.41851562 -2.01195312 1.71984375 -2 1 C-1.34 0.67 -0.68 0.34 0 0 Z " fill="#E7D282" transform="translate(232,96)"/>
<path d="M0 0 C0.66 0 1.32 0 2 0 C3.4606285 2.64738916 4 3.89448334 4 7 C2.68 7 1.36 7 0 7 C0 7.66 0 8.32 0 9 C-0.99 9 -1.98 9 -3 9 C-3.33 10.98 -3.66 12.96 -4 15 C-4.66 15 -5.32 15 -6 15 C-6 15.66 -6 16.32 -6 17 C-6.99 17 -7.98 17 -9 17 C-8.88541307 15.56163249 -8.75790884 14.12429034 -8.625 12.6875 C-8.55539063 11.88699219 -8.48578125 11.08648437 -8.4140625 10.26171875 C-8 8 -8 8 -6 5 C-2.875 4.8125 -2.875 4.8125 0 5 C0 3.35 0 1.7 0 0 Z " fill="#DFC44C" transform="translate(220,115)"/>
<path d="M0 0 C0.33 0 0.66 0 1 0 C0.76483847 2.63180778 0.52683352 5.26331247 0.28515625 7.89453125 C0.10177838 9.89159166 -0.07819083 11.88896957 -0.25390625 13.88671875 C-0.33511719 14.76972656 -0.41632813 15.65273437 -0.5 16.5625 C-0.5721875 17.36816406 -0.644375 18.17382812 -0.71875 19.00390625 C-1 21 -1 21 -2 23 C-0.68 22.67 0.64 22.34 2 22 C2 23.32 2 24.64 2 26 C0.125 25.6875 0.125 25.6875 -2 25 C-5.58818958 19.61771562 -4.33108025 12.4831019 -3.5 6.25 C-3.335 5.5075 -3.17 4.765 -3 4 C-2.34 4 -1.68 4 -1 4 C-0.67 2.68 -0.34 1.36 0 0 Z " fill="#DFC46F" transform="translate(194,151)"/>
<path d="M0 0 C1.32 0 2.64 0 4 0 C3.33042717 3.85934339 1.51125822 6.73650536 -0.5 10.0625 C-3.10142441 14.36864736 -3.10142441 14.36864736 -5 19 C-5.66 19 -6.32 19 -7 19 C-7.51424304 14.19733734 -5.69746636 10.80668887 -3.5 6.6875 C-2.99919922 5.71973633 -2.99919922 5.71973633 -2.48828125 4.73242188 C-1.66788637 3.15023174 -0.83515969 1.57444646 0 0 Z " fill="#DBBD42" transform="translate(174,165)"/>
<path d="M0 0 C0.33 1.32 0.66 2.64 1 4 C2.32 3.67 3.64 3.34 5 3 C5.16179775 11.08988764 5.16179775 11.08988764 4.5 14.8125 C3.55056669 20.86513734 2.52007378 27.78011067 6 33 C6.99 33.66 7.98 34.32 9 35 C7.515 35.495 7.515 35.495 6 36 C4.01953125 34.51171875 4.01953125 34.51171875 2 32 C1.67712962 29.1237877 1.57318103 26.67016348 1.6875 23.8125 C1.71070313 22.67663452 1.71070313 22.67663452 1.734375 21.51782227 C1.86864787 16.30299978 2.248782 11.16462373 3 6 C1.02 5.34 -0.96 4.68 -3 4 C-2.67 3.01 -2.34 2.02 -2 1 C-1.34 0.67 -0.68 0.34 0 0 Z " fill="#E4CB6B" transform="translate(187,143)"/>
<path d="M0 0 C2.76544722 3.45680903 4.84921278 7.14341602 7 11 C4.03 10.505 4.03 10.505 1 10 C2.98 12.31 4.96 14.62 7 17 C6.01 17 5.02 17 4 17 C4 16.34 4 15.68 4 15 C3.38125 14.690625 2.7625 14.38125 2.125 14.0625 C0.75 13.375 -0.625 12.6875 -2 12 C-2.4140625 9.93359375 -2.4140625 9.93359375 -2.625 7.4375 C-2.69976562 6.61121094 -2.77453125 5.78492187 -2.8515625 4.93359375 C-2.90054688 4.29550781 -2.94953125 3.65742187 -3 3 C-2.01 3 -1.02 3 0 3 C0 2.01 0 1.02 0 0 Z " fill="#DECD64" transform="translate(238,110)"/>
<path d="M0 0 C0.66 0.99 1.32 1.98 2 3 C2.66 3 3.32 3 4 3 C3.45144652 7.571279 2.58255197 11.67435795 1 16 C0.67 14.68 0.34 13.36 0 12 C-1.32 12.33 -2.64 12.66 -4 13 C-3.67 9.04 -3.34 5.08 -3 1 C-2.34 1.66 -1.68 2.32 -1 3 C-0.67 2.01 -0.34 1.02 0 0 Z " fill="#E8DA8F" transform="translate(196,161)"/>
<path d="M0 0 C0.99 0 1.98 0 3 0 C3.33 4.29 3.66 8.58 4 13 C-1 11 -1 11 -3 10 C-2.25 2.25 -2.25 2.25 0 0 Z " fill="#E5BE38" transform="translate(231,128)"/>
<path d="M0 0 C0.33 0.99 0.66 1.98 1 3 C1.65129797 4.34090759 2.31513275 5.67592331 3 7 C3.99 6.34 4.98 5.68 6 5 C5.01 8.63 4.02 12.26 3 16 C2.34 14.68 1.68 13.36 1 12 C0.01 12 -0.98 12 -2 12 C-2.33 11.34 -2.66 10.68 -3 10 C-3.33 10.66 -3.66 11.32 -4 12 C-4.66 12 -5.32 12 -6 12 C-4.43358249 7.69235185 -2.31663844 3.93828536 0 0 Z " fill="#EDE1A8" transform="translate(200,100)"/>
<path d="M0 0 C0.33 0.99 0.66 1.98 1 3 C1.66 3.33 2.32 3.66 3 4 C2.34 4 1.68 4 1 4 C1.061875 5.134375 1.12375 6.26875 1.1875 7.4375 C1.21380222 12.33847991 -0.23987606 16.473967 -2 21 C-2.66 20.67 -3.32 20.34 -4 20 C-3.01 16.04 -2.02 12.08 -1 8 C-1.66 8 -2.32 8 -3 8 C-3 8.99 -3 9.98 -3 11 C-3.66 11 -4.32 11 -5 11 C-4.34 8.36 -3.68 5.72 -3 3 C-2.34 3 -1.68 3 -1 3 C-0.67 2.01 -0.34 1.02 0 0 Z " fill="#EAD4A0" transform="translate(197,109)"/>
<path d="M0 0 C0.66 0 1.32 0 2 0 C1.34 4.62 0.68 9.24 0 14 C-1.32 14 -2.64 14 -4 14 C-4.33 11.36 -4.66 8.72 -5 6 C-4.01 6 -3.02 6 -2 6 C-1.34 4.02 -0.68 2.04 0 0 Z " fill="#D9C560" transform="translate(238,99)"/>
<path d="M0 0 C2.89696854 0.36982577 5.37621929 0.68810965 8 2 C8 3.65 8 5.3 8 7 C5.36 6.67 2.72 6.34 0 6 C-0.38218767 4.34385343 -0.71395102 2.67542976 -1 1 C-0.67 0.67 -0.34 0.34 0 0 Z " fill="#DCCB7D" transform="translate(210,107)"/>
<path d="M0 0 C1.1171875 3.71875 1.1171875 3.71875 0.0625 6.25 C-0.4634375 7.11625 -0.4634375 7.11625 -1 8 C-0.34 8 0.32 8 1 8 C1 7.01 1 6.02 1 5 C1.99 4.67 2.98 4.34 4 4 C4 4.99 4 5.98 4 7 C3.34 7 2.68 7 2 7 C1.34 8.98 0.68 10.96 0 13 C-0.33 12.01 -0.66 11.02 -1 10 C-1.99 10 -2.98 10 -4 10 C-4.33 11.32 -4.66 12.64 -5 14 C-5.33 13.34 -5.66 12.68 -6 12 C-4.78515625 9.1796875 -4.78515625 9.1796875 -3.0625 5.875 C-2.49660156 4.77929688 -1.93070313 3.68359375 -1.34765625 2.5546875 C-0.90292969 1.71164063 -0.45820313 0.86859375 0 0 Z " fill="#EAE0B2" transform="translate(193,112)"/>
<path d="M0 0 C1.07310858 3.27185553 0.89263102 5.42947592 0.0625 8.75 C-0.13214844 9.54921875 -0.32679688 10.3484375 -0.52734375 11.171875 C-0.76130859 12.07679688 -0.76130859 12.07679688 -1 13 C-2.32 12.67 -3.64 12.34 -5 12 C-4.45119974 8.06693147 -3.74199701 4.58646443 -2 1 C-1.34 0.67 -0.68 0.34 0 0 Z " fill="#DDC04F" transform="translate(166,185)"/>
<path d="M0 0 C1.32 0.33 2.64 0.66 4 1 C3.75 2.875 3.75 2.875 3 5 C2.34 5.309375 1.68 5.61875 1 5.9375 C0.01 6.4634375 0.01 6.4634375 -1 7 C-1.81171228 9.55519921 -1.81171228 9.55519921 -2 12 C-2.99 12 -3.98 12 -5 12 C-5.33 12.99 -5.66 13.98 -6 15 C-6 13.68 -6 12.36 -6 11 C-5.34 11 -4.68 11 -4 11 C-3.34 9.02 -2.68 7.04 -2 5 C-1.34 5 -0.68 5 0 5 C0 3.35 0 1.7 0 0 Z " fill="#E2C878" transform="translate(201,136)"/>
<path d="M0 0 C4.7517398 0.43197635 6.92000054 1.32769295 10 5 C8.35 4.67 6.7 4.34 5 4 C5 4.99 5 5.98 5 7 C2.525 6.01 2.525 6.01 0 5 C0 3.35 0 1.7 0 0 Z " fill="#DDCA7C" transform="translate(221,107)"/>
<path d="M0 0 C0.33 0 0.66 0 1 0 C1 3.96 1 7.92 1 12 C2.32 11.67 3.64 11.34 5 11 C5 12.32 5 13.64 5 15 C3.125 14.6875 3.125 14.6875 1 14 C-1.18841354 10.71737969 -1.24854665 9.68209102 -1.1875 5.875 C-1.18105469 4.98554688 -1.17460937 4.09609375 -1.16796875 3.1796875 C-1 1 -1 1 0 0 Z " fill="#D6BC57" transform="translate(191,162)"/>
<path d="M0 0 C-0.49658297 5.66104589 -1.54510684 9.87674471 -4 15 C-4.66 15 -5.32 15 -6 15 C-5.74535902 12.8729989 -5.47077058 10.74837785 -5.1875 8.625 C-5.03667969 7.44164063 -4.88585937 6.25828125 -4.73046875 5.0390625 C-4.06209902 2.2583585 -3.51773621 0 0 0 Z " fill="#DECB79" transform="translate(202,111)"/>
<path d="M0 0 C1 2 1 2 0.37915039 3.87939453 C0.03875732 4.62302246 -0.30163574 5.36665039 -0.65234375 6.1328125 C-1.01650391 6.93847656 -1.38066406 7.74414062 -1.75585938 8.57421875 C-2.34077148 9.83685547 -2.34077148 9.83685547 -2.9375 11.125 C-3.32357422 11.97449219 -3.70964844 12.82398438 -4.10742188 13.69921875 C-5.06465908 15.80277704 -6.02908723 17.90272732 -7 20 C-7.33 20 -7.66 20 -8 20 C-8.3960246 15.51172124 -7.08641946 12.92246859 -5 9 C-4.31363375 6.76474965 -4.31363375 6.76474965 -4 5 C-3.34 5 -2.68 5 -2 5 C-1.34 3.35 -0.68 1.7 0 0 Z " fill="#EBD893" transform="translate(211,135)"/>
<path d="M0 0 C1 3 1 3 -0.43359375 6.35546875 C-1.09148807 7.6380304 -1.75989743 8.91524057 -2.4375 10.1875 C-2.77587891 10.84169922 -3.11425781 11.49589844 -3.46289062 12.16992188 C-4.29969098 13.78459299 -5.14869746 15.39292763 -6 17 C-6.66 17 -7.32 17 -8 17 C-6.66666667 13 -5.33333333 9 -4 5 C-3.34 5 -2.68 5 -2 5 C-1.34 3.35 -0.68 1.7 0 0 Z " fill="#DBC970" transform="translate(182,148)"/>
<path d="M0 0 C1.24546405 2.49092811 0.7767578 3.41080733 0 6 C0.99 5.67 1.98 5.34 3 5 C3.33 4.01 3.66 3.02 4 2 C4.66 2 5.32 2 6 2 C4.74194623 6.50802601 3.09592835 9.4912812 0 13 C-2.00519881 10.16913109 -2.08216415 8.14322623 -1.6875 4.8125 C-1 1 -1 1 0 0 Z " fill="#E9D88B" transform="translate(202,97)"/>
<path d="M0 0 C0.33 1.32 0.66 2.64 1 4 C1.66 4 2.32 4 3 4 C3.33 3.34 3.66 2.68 4 2 C3.67 3.32 3.34 4.64 3 6 C3.99 6 4.98 6 6 6 C6 6.99 6 7.98 6 9 C3.625 9.1875 3.625 9.1875 1 9 C-1.14809171 5.77786243 -1.29386153 4.72224599 -1 1 C-0.67 0.67 -0.34 0.34 0 0 Z " fill="#DCC25E" transform="translate(186,134)"/>
<path d="M0 0 C3.19902639 -0.08886184 5.92677456 0.08941469 9 1 C8.67 3.31 8.34 5.62 8 8 C9.32 8.33 10.64 8.66 12 9 C9 11 9 11 7 11 C7 9.68 7 8.36 7 7 C6.34 6.67 5.68 6.34 5 6 C5.66 6 6.32 6 7 6 C7 5.01 7 4.02 7 3 C4.69 2.34 2.38 1.68 0 1 C0 0.67 0 0.34 0 0 Z " fill="#E5CF6B" transform="translate(203,124)"/>
<path d="M0 0 C0.93045933 2.55144824 1.08564091 3.74006478 0.22265625 6.359375 C-0.16019531 7.14828125 -0.54304687 7.9371875 -0.9375 8.75 C-1.50791016 9.94882813 -1.50791016 9.94882813 -2.08984375 11.171875 C-2.39019531 11.77515625 -2.69054687 12.3784375 -3 13 C-3.33 13 -3.66 13 -4 13 C-4 10.03 -4 7.06 -4 4 C-3.01 3.67 -2.02 3.34 -1 3 C-0.67 2.01 -0.34 1.02 0 0 Z " fill="#DCBF5D" transform="translate(206,140)"/>
<path d="M0 0 C2.15377564 2.62198774 3.40072174 4.64404172 4 8 C3.34 7.67 2.68 7.34 2 7 C1.34 7.66 0.68 8.32 0 9 C-0.99 8.34 -1.98 7.68 -3 7 C-3 5.68 -3 4.36 -3 3 C-2.01 3 -1.02 3 0 3 C0 2.01 0 1.02 0 0 Z " fill="#EED989" transform="translate(238,110)"/>
<path d="M0 0 C0.33 0 0.66 0 1 0 C1.04898438 0.97582031 1.09796875 1.95164063 1.1484375 2.95703125 C1.22320312 4.22933594 1.29796875 5.50164062 1.375 6.8125 C1.44460937 8.07707031 1.51421875 9.34164062 1.5859375 10.64453125 C1.76102939 14.12755234 1.76102939 14.12755234 4 17 C4.99 17.66 5.98 18.32 7 19 C6.01 19.33 5.02 19.66 4 20 C2.015625 18.515625 2.015625 18.515625 0 16 C-0.2906124 13.10550051 -0.38186045 10.62050065 -0.25 7.75 C-0.23195312 7.00492188 -0.21390625 6.25984375 -0.1953125 5.4921875 C-0.14835649 3.66090299 -0.07661652 1.83028351 0 0 Z " fill="#E6DC98" transform="translate(189,159)"/>
<path d="M0 0 C0.66 0 1.32 0 2 0 C1.49287967 3.71888239 0.88391785 6.73454239 -1 10 C-1.66 10 -2.32 10 -3 10 C-2.25 3.375 -2.25 3.375 0 0 Z " fill="#DFC67B" transform="translate(184,152)"/>
<path d="M0 0 C3.875 1.875 3.875 1.875 5 3 C5.04063832 4.66617115 5.042721 6.33388095 5 8 C3.68 8.33 2.36 8.66 1 9 C1.33 6.69 1.66 4.38 2 2 C1.01 2.33 0.02 2.66 -1 3 C-0.67 2.01 -0.34 1.02 0 0 Z " fill="#E1D590" transform="translate(238,140)"/>
<path d="M0 0 C0.66 0 1.32 0 2 0 C2 0.66 2 1.32 2 2 C3.32 2 4.64 2 6 2 C5.67 4.97 5.34 7.94 5 11 C4.67 11 4.34 11 4 11 C4 8.69 4 6.38 4 4 C2.35 4.66 0.7 5.32 -1 6 C-0.67 4.02 -0.34 2.04 0 0 Z " fill="#E7D47F" transform="translate(230,124)"/>
<path d="M0 0 C0.99 0 1.98 0 3 0 C3.33 4.29 3.66 8.58 4 13 C3.67 13 3.34 13 3 13 C3 11.35 3 9.7 3 8 C2.34 8 1.68 8 1 8 C0.87625 7.195625 0.7525 6.39125 0.625 5.5625 C0.315625 4.2940625 0.315625 4.2940625 0 3 C-0.66 2.67 -1.32 2.34 -2 2 C-1.34 1.34 -0.68 0.68 0 0 Z " fill="#DCC24A" transform="translate(231,128)"/>
<path d="M0 0 C0.66 0 1.32 0 2 0 C1.88601335 1.62580966 1.75844341 3.25067157 1.625 4.875 C1.52058594 6.23238281 1.52058594 6.23238281 1.4140625 7.6171875 C1 10 1 10 -1 12 C-1.02698189 10.37509046 -1.04638757 8.75005367 -1.0625 7.125 C-1.07410156 6.22007812 -1.08570313 5.31515625 -1.09765625 4.3828125 C-1 2 -1 2 0 0 Z " fill="#D6B849" transform="translate(193,145)"/>
<path d="M0 0 C1 2 1 2 1 5 C1.66 5 2.32 5 3 5 C2.34 6.65 1.68 8.3 1 10 C0.01 9.67 -0.98 9.34 -2 9 C-1.125 1.125 -1.125 1.125 0 0 Z " fill="#E3D78F" transform="translate(222,144)"/>
<path d="M0 0 C0 1.98 0 3.96 0 6 C-0.99 6.33 -1.98 6.66 -3 7 C-3.33 7.66 -3.66 8.32 -4 9 C-4 6.36 -4 3.72 -4 1 C-2 0 -2 0 0 0 Z " fill="#D8C05A" transform="translate(226,142)"/>
<path d="M0 0 C3.57104439 1.87949705 5.54744301 3.17053157 7 7 C4.625 6.6875 4.625 6.6875 2 6 C0 3 0 3 0 0 Z " fill="#D5BC48" transform="translate(249,128)"/>
<path d="M0 0 C0.66 0 1.32 0 2 0 C1.67 2.31 1.34 4.62 1 7 C0.34 7 -0.32 7 -1 7 C-1 8.98 -1 10.96 -1 13 C-1.66 13 -2.32 13 -3 13 C-3.31563182 7.73946963 -2.66590937 4.55426184 0 0 Z " fill="#DECB80" transform="translate(187,128)"/>
<path d="M0 0 C4.75 0.875 4.75 0.875 7 2 C7 2.99 7 3.98 7 5 C5.68 5 4.36 5 3 5 C3 4.34 3 3.68 3 3 C2.01 3 1.02 3 0 3 C0 2.01 0 1.02 0 0 Z " fill="#D7C25F" transform="translate(203,125)"/>
<path d="M0 0 C1 2 1 2 0.0625 5.125 C-0.288125 6.07375 -0.63875 7.0225 -1 8 C-1.66 8 -2.32 8 -3 8 C-3 8.99 -3 9.98 -3 11 C-3.66 11 -4.32 11 -5 11 C-4.34 8.36 -3.68 5.72 -3 3 C-2.34 3 -1.68 3 -1 3 C-0.67 2.01 -0.34 1.02 0 0 Z " fill="#DDD196" transform="translate(197,109)"/>
<path d="M0 0 C1.32 0 2.64 0 4 0 C4 2.31 4 4.62 4 7 C3.01 6.67 2.02 6.34 1 6 C0.67 4.02 0.34 2.04 0 0 Z " fill="#DEBB32" transform="translate(233,105)"/>
<path d="M0 0 C0.66 0 1.32 0 2 0 C1.38545304 3.99455527 -0.70646737 6.74466336 -3 10 C-4 7 -4 7 -3.22265625 5.17578125 C-2.1484375 3.45052083 -1.07421875 1.72526042 0 0 Z " fill="#F8E5A2" transform="translate(184,148)"/>
<path d="M0 0 C0.33 0.66 0.66 1.32 1 2 C1.66 2.33 2.32 2.66 3 3 C2.01 4.98 1.02 6.96 0 9 C-0.66 9 -1.32 9 -2 9 C-2.20140476 5.37471432 -1.85776765 3.13498292 0 0 Z " fill="#DCC14F" transform="translate(169,175)"/>
<path d="M0 0 C0.33 0 0.66 0 1 0 C1.33 2.64 1.66 5.28 2 8 C1.01 8.495 1.01 8.495 0 9 C-0.99 8.34 -1.98 7.68 -3 7 C-2.01 4.69 -1.02 2.38 0 0 Z " fill="#E3CB82" transform="translate(201,147)"/>
<path d="M0 0 C0.66 0 1.32 0 2 0 C2 1.65 2 3.3 2 5 C0.02 5.66 -1.96 6.32 -4 7 C-2.92598892 4.08482708 -2.22189824 2.22189824 0 0 Z " fill="#EBC864" transform="translate(196,135)"/>
<path d="M0 0 C0.66 0 1.32 0 2 0 C2 1.65 2 3.3 2 5 C1.34 5 0.68 5 0 5 C0 5.66 0 6.32 0 7 C-0.99 7 -1.98 7 -3 7 C-2.67 5.68 -2.34 4.36 -2 3 C-1.34 3 -0.68 3 0 3 C0 2.01 0 1.02 0 0 Z " fill="#E3BD30" transform="translate(214,125)"/>
<path d="M0 0 C1.32 0.33 2.64 0.66 4 1 C3.625 2.9375 3.625 2.9375 3 5 C2.01 5.495 2.01 5.495 1 6 C0.67 4.02 0.34 2.04 0 0 Z " fill="#E5CC61" transform="translate(201,136)"/>
<path d="M0 0 C1.65 0 3.3 0 5 0 C5 1.32 5 2.64 5 4 C3.35 4.33 1.7 4.66 0 5 C0 3.35 0 1.7 0 0 Z " fill="#DBC583" transform="translate(201,131)"/>
<path d="M0 0 C0.66 0 1.32 0 2 0 C2 0.66 2 1.32 2 2 C3.32 1.67 4.64 1.34 6 1 C6 2.32 6 3.64 6 5 C4.125 4.75 4.125 4.75 2 4 C0.75 1.9375 0.75 1.9375 0 0 Z " fill="#D6C75F" transform="translate(190,172)"/>
<path d="M0 0 C0.33 0 0.66 0 1 0 C1 1.65 1 3.3 1 5 C-0.98 5.66 -2.96 6.32 -5 7 C-4.67 6.34 -4.34 5.68 -4 5 C-3.34 5 -2.68 5 -2 5 C-1.34 3.35 -0.68 1.7 0 0 Z " fill="#F2D976" transform="translate(193,134)"/>
<path d="M0 0 C0.99 0 1.98 0 3 0 C3 1.98 3 3.96 3 6 C2.01 5.67 1.02 5.34 0 5 C0 3.35 0 1.7 0 0 Z " fill="#E3D888" transform="translate(189,122)"/>
<path d="M0 0 C1.9375 0.3125 1.9375 0.3125 4 1 C4.33 1.99 4.66 2.98 5 4 C3.68 4.33 2.36 4.66 1 5 C0.67 3.35 0.34 1.7 0 0 Z " fill="#E2C24C" transform="translate(226,111)"/>
</svg>
